<svg id="Layer_1" data-name="Layer 1" xmlns="http://www.w3.org/2000/svg" viewBox="0 0 362.8 347.5"><defs><style>.cls-1{fill:#4d4d4d;}</style></defs><title>fa_icon9</title><path class="cls-1" d="M324.37,102.87a51,51,0,0,0-45.67-50.7,50.84,50.84,0,0,0-74-26,50.94,50.94,0,0,0-94.81,16.69,53.7,53.7,0,0,0-6.32-.41,51,51,0,0,0-51,51c0,1.4.11,2.75.22,4.1A50.93,50.93,0,0,0,48,180.3c-.06.91-.13,1.81-.13,2.75a50.93,50.93,0,0,0,74.37,45.29c9.73,7,23.64,15.7,30.38,14,0,0,2.51,38.83,2,48.67-1,18.75-6.65,39.62-10.61,56.54h61.32s-9-37.67-9.43-50.24,3.93-35.74,3.93-35.74l21.25-22a51.12,51.12,0,0,0,79.46-37A50.92,50.92,0,0,0,321,121a50.87,50.87,0,0,0,3.39-18.15ZM134,219.92a51.75,51.75,0,0,0,10.14-13.53l10,21s-5.47,2.39-20.15-7.45Zm37.42,12.94c-5.17.94-14-15-20.27-28a50.75,50.75,0,0,0,23.13,5.58,53.79,53.79,0,0,0,6.32-.42c-1.63,10.37-4.46,22-9.19,22.82Zm22,10.21c-12,3.32-4.81-21.48-1.37-35.86a51.33,51.33,0,0,0,7.17-3.3A50.68,50.68,0,0,0,212,231.3c-5.86,5.19-12.56,10.14-18.48,11.77Zm0,0"/></svg>