<svg id="Layer_1" data-name="Layer 1" xmlns="http://www.w3.org/2000/svg" viewBox="0 0 362.8 347.5"><defs><style>.cls-1{fill:#4d4d4d;}</style></defs><title>fa_icon11</title><path class="cls-1" d="M82.22,147.76c68.39,32.34,130.31,33.23,199,.54-7.62,48.79-10.9,93.69-22.4,136.38-10.72,39.79-40.66,57-79,56.3-37.86-.72-66.05-19.62-76.12-60.12C93.42,239.49,89.77,196.47,82.22,147.76Z"/><path class="cls-1" d="M182.93,6c36.45.31,70.89,7.51,100.23,30.73,33.31,26.36,33.73,63.37,1.4,90.88-50.58,43-155.73,42.45-206-1.15-30.42-26.35-30.33-61.72.23-88.2C102.5,17.63,140.28,6,182.93,6Zm-.81,14c-25.16.55-51.3,7.65-72.32,21.21-27,17.42-25.15,47-.34,68,34.93,29.63,111.09,28.81,145-1.57,22.22-19.93,23.9-48.89-.7-65.31C233.45,28.84,210.17,20.28,182.12,20Z"/><path class="cls-1" d="M139.36,111.75c-8.72-5.13-16.13-8.44-22.3-13.32-17.92-14.2-18.13-33.48-1.15-48.33,29.32-25.63,99.4-26,129.67-.68,23.81,19.92,14.67,45.58-21.08,59.23-9.24-30.52-21.23-43.14-41.43-43.58C161.95,64.6,149.07,77.79,139.36,111.75Z"/></svg>