<?xml version="1.0" encoding="utf-8"?>
<!-- Generator: Adobe Illustrator 21.0.2, SVG Export Plug-In . SVG Version: 6.00 Build 0)  -->
<svg version="1.1" id="Layer_1" xmlns="http://www.w3.org/2000/svg" xmlns:xlink="http://www.w3.org/1999/xlink" x="0px" y="0px"
	 viewBox="0 0 362.8 347.5" style="enable-background:new 0 0 362.8 347.5;" xml:space="preserve">
<style type="text/css">
	.st0{fill:#4D4E4E;}
</style>
<g>
	<g>
		<path class="st0" d="M181.4,194.6c22.5,0,75.6-27.1,75.6-92.2c0-50.9-6.9-92.2-75.6-92.2s-75.6,41.3-75.6,92.2
			C105.8,167.5,158.9,194.6,181.4,194.6L181.4,194.6z M117.1,87.1c5.3-10.3,16.8-22.1,41.5-21.6c0,0,14.7,35.7,87,19.7
			c0.3,5.7,0.4,11.5,0.4,17.3c0,31.8-14,51.5-25.8,62.4c-14.8,13.8-31.3,18.8-38.8,18.8c-7.5,0-23.9-5-38.8-18.8
			c-11.8-10.9-25.8-30.6-25.8-62.4C116.9,97.3,116.9,92.2,117.1,87.1L117.1,87.1z M117.1,87.1"/>
		<path class="st0" d="M321.7,289.2c-3.9-24-11.8-54.9-27.7-65.9c-10.9-7.5-48.8-27.8-65-36.4l-0.3-0.2c-1.9-1-4.1-0.8-5.8,0.5
			c-8.5,6.7-17.8,11.2-27.6,13.4c-1.7,0.4-3.2,1.6-3.8,3.3l-10,26.4l-10-26.4c-0.6-1.7-2.1-2.9-3.8-3.3c-9.9-2.2-19.2-6.7-27.6-13.4
			c-1.7-1.3-3.9-1.5-5.8-0.5c-16,8.6-54.4,29.3-65.3,36.6c-18.3,12.4-26.4,57.1-27.8,65.9c-0.1,0.9-0.1,1.8,0.2,2.6
			c0.7,1.9,17.5,45.4,140.1,45.4c122.6,0,139.4-43.5,140.1-45.4C321.8,290.9,321.9,290,321.7,289.2L321.7,289.2z M265.2,274.5
			l-24,7.5l-24-7.5v-12.9h48V274.5z M265.2,274.5"/>
	</g>
</g>
</svg>
