<svg id="Layer_1" data-name="Layer 1" xmlns="http://www.w3.org/2000/svg" viewBox="0 0 362.8 347.5"><defs><style>.cls-1{fill:#4d4d4d;}</style></defs><title>fa_icon5</title><path class="cls-1" d="M145.86,58.08a23.76,23.76,0,1,1-23.77-23.75,23.77,23.77,0,0,1,23.77,23.75Zm0,0"/><path class="cls-1" d="M342.5,260.62V247.37a5.67,5.67,0,0,0-5.66-5.66h-85.1l-34.06-94.29a5.57,5.57,0,0,0-4.55-3.66l-29.2-4c2.06-5.69.79-12.33-6.16-16Q153.53,110.87,129.32,98c-7.32-20.79-44.9-17.61-47,9.47-1.89,24.39-10.77,47.86-27,66.33a23.36,23.36,0,0,0-6,19.79C40.51,225.37,24,253.36,7.27,282-2,297.81,22.52,312,31.75,296.27,47.09,270,62.31,243.92,72.21,215.45a20.94,20.94,0,0,0,3.57-.11c10.23,7.28,18.73,16.31,21.65,29.29,3.48,15.54-8.88,32.68-18.05,43.71-11.59,14,8.35,34.12,20,20.05,16-19.23,29.73-42.21,25.81-68.16-2.72-18.05-13.49-32.15-27-43.3a163.84,163.84,0,0,0,29.43-67.8l35.87,19a13.69,13.69,0,0,0,9.47,1.5l35.25,4.84,33.92,93.88v12.21a20.77,20.77,0,1,0,26.4,20,20.39,20.39,0,0,0-1.12-6.75h49.81a20.75,20.75,0,1,0,25.31-13.21Zm0,0"/><path class="cls-1" d="M170,191.39a44.69,44.69,0,0,1,6.23,4.07c2,1.53,3.95,3.16,6,4.81a30.31,30.31,0,0,0-4.78-6.17,26.69,26.69,0,0,0-6.34-4.75,13,13,0,0,0-8-1.62,8.54,8.54,0,0,0-6.23,4.84,10.08,10.08,0,0,1,6.43-3,13.64,13.64,0,0,1,6.75,1.86Zm0,0"/><path class="cls-1" d="M138.58,216.19a12.4,12.4,0,0,1-1.21,3.84,10.11,10.11,0,0,1-2.39,3.1,26.87,26.87,0,0,1-3.57,2.54,8.46,8.46,0,0,0,4.6-1.06,8,8,0,0,0,3.42-3.54,10.09,10.09,0,0,0-.32-9.26c-.17,1.56-.26,3-.53,4.39Zm0,0"/><path class="cls-1" d="M215.26,258.76a13,13,0,0,0,6.31-2.54,15.36,15.36,0,0,0,2.57-2.24,10.13,10.13,0,0,0,1.89-2.92,30.33,30.33,0,0,0-5.78,3.31,25.53,25.53,0,0,0-5,4.39Zm0,0"/><path class="cls-1" d="M174,223.16a30.17,30.17,0,0,0-15.67-4.42,70.55,70.55,0,0,1,14.48,6.43c4.58,2.63,8.77,5.81,13.21,9a39.64,39.64,0,0,0-12-11Zm0,0"/><path class="cls-1" d="M169.72,263.18a8.55,8.55,0,0,0-3.71-1.36,3.94,3.94,0,0,0,.94,1.95,7,7,0,0,0,1.5,1.32,11.39,11.39,0,0,0,1.68.86,8.78,8.78,0,0,0,2,.5,4,4,0,0,0-1-1.95,7.27,7.27,0,0,0-1.47-1.32Zm0,0"/><path class="cls-1" d="M206.59,227.4a6.2,6.2,0,0,0-.5,1.92,10.52,10.52,0,0,0,0,1.89,7.71,7.71,0,0,0,.51,2,4.33,4.33,0,0,0,1.27-1.77,6.25,6.25,0,0,0,.5-1.89,9,9,0,0,0-.5-3.95,4.26,4.26,0,0,0-1.3,1.77Zm0,0"/></svg>