<svg id="Layer_1" data-name="Layer 1" xmlns="http://www.w3.org/2000/svg" viewBox="0 0 362.8 347.5"><defs><style>.cls-1{fill:#4d4d4d;}</style></defs><title>fa_icon8</title><path class="cls-1" d="M170,56.44a10.92,10.92,0,0,1-2.56,5.72c46.3,39.29,62.32,2.73,2.56-5.72Zm0,0"/><path class="cls-1" d="M167.1,63.63c-.2-.21-.34-.38-.52-.55h0c.18.21.35.35.54.55Zm0,0"/><path class="cls-1" d="M159,43.72c0-.29,0-.54,0-.83v.83Zm0,0"/><path class="cls-1" d="M170.12,54.8v0a7.86,7.86,0,0,0,.83,0,7.85,7.85,0,0,1-.83,0Zm0,0"/><path class="cls-1" d="M157.58,43.87c-7.56-60.33-41-46.62-5.29,2.07a11,11,0,0,1,5.29-2.07Zm0,0"/><path class="cls-1" d="M167.94,48.33A10.82,10.82,0,0,1,170,53.74c60.33-6.62,46.74-41-2.07-5.41Zm0,0"/><path class="cls-1" d="M167.85,46.78l-.69.6s0,0,0,0c.23-.2.43-.43.66-.63Zm0,0"/><path class="cls-1" d="M150.77,62.53c-.21.21-.38.38-.57.54.2-.17.4-.34.57-.52Zm0,0"/><path class="cls-1" d="M146.91,54.8c.29,0,.54,0,.84,0v0Zm0,0"/><path class="cls-1" d="M147.86,53.65a11.15,11.15,0,0,1,2.47-5.84c-46.21-37.87-62.18-1.38-2.47,5.84Zm0,0"/><path class="cls-1" d="M160.26,43.87a11.1,11.1,0,0,1,5.81,2.47c38-46.21,1.52-62.2-5.81-2.47Zm0,0"/><path class="cls-1" d="M149.9,61.5a11.09,11.09,0,0,1-2-5.21c-60.56,7.67-47.71,41.1,2,5.21Zm0,0"/><path class="cls-1" d="M151.43,46.66c-.24-.23-.43-.43-.66-.69.23.26.4.49.63.72l0,0Zm0,0"/><path class="cls-1" d="M153.76,55.67a5.2,5.2,0,0,0,.89,2.24,5.38,5.38,0,0,0,.35.52,1.85,1.85,0,0,1,.14.2c.15.14.32.23.46.35a5.31,5.31,0,0,0,2.53,1.12,5.13,5.13,0,0,0,.71.12l.09,0c.06,0,.12,0,.17,0a3,3,0,0,0,.49-.12,5,5,0,0,0,2.3-.89,3.22,3.22,0,0,0,.52-.35c.08-.06.17-.09.23-.14s.2-.32.32-.46a5.31,5.31,0,0,0,1.12-2.53,5.07,5.07,0,0,0,.15-.71v-.09c0-.06,0-.12,0-.17a2.18,2.18,0,0,0-.09-.46,5.29,5.29,0,0,0-.92-2.39c-.11-.12-.17-.29-.29-.41a2.28,2.28,0,0,0-.17-.23,2.78,2.78,0,0,0-.55-.43,5.21,5.21,0,0,0-2.53-1.09,3.79,3.79,0,0,1-.57-.12c-.06,0-.09,0-.15,0s-.09,0-.12,0a4.54,4.54,0,0,0-.6.12,5.41,5.41,0,0,0-2.33.92,4.83,4.83,0,0,1-.41.29c-.06.06-.14.09-.2.14a5.15,5.15,0,0,0-.46.58,5,5,0,0,0-1.06,2.53,3.71,3.71,0,0,0-.12.55c0,.05,0,.11,0,.17s0,.06,0,.09a5.47,5.47,0,0,0,.12.66Zm0,0"/><path class="cls-1" d="M311,118.64c61.26-26.37,16.57-70.63-9.49-9.37,26.06-61.26-41.93-61.26-14.41,0-27.52-61.26-70.34-17-9.09,9.37-61.26-26.37-61.26,41.62,0,14.44-61.26,27.18-18.44,70.44,9.09,9.17-11.41,25.4-6.41,40.24,1.49,44.55V211.2a15.3,15.3,0,0,0-10.84-6.56c-6.82-.89-16.74,4.28-28.27-3.39,1.09,29.51,26.75,38,34.51,33a45.06,45.06,0,0,0,4.6-3.31v18.49H206.12v-5.21a35,35,0,0,0,3.42.83c7.16,1.33,23.38-12.45,15.45-34.34-5.84,8.57-14,8.28-18.87,10.5V212.4c3.42-4.31,4.75-12.8,0-25.45v-.41c18,38.59,46.74,9.69,5.46-8.63,42.11,18.69,42.11-28.07,0-9.92,42.11-18.14,11.39-48.57-6.52-6.47,17.91-42.1-28.85-42.1-9.92,0-18.92-42.1-48.34-11.67-6.24,6.47-10.76-4.63-18.75-5-24-3.36V89.11c10.93,32.64,30.69,17,.54-25.11l-.54.38a11.58,11.58,0,0,1-4.78,2c-.38.06-.74.49-1.12.49h0s0-.35-.06-.35a8.46,8.46,0,0,1-1.49-.35,10.9,10.9,0,0,1-4.31-1.6,8.24,8.24,0,0,1-1.41-1.1c-34.2,40.43-10.65,57.69,1.41,21.66V249.44H82.43V224a48.36,48.36,0,0,0,5.84,4.37c7.8,5,33.45-3.51,34.54-33-11.54,7.68-21.48,2.47-28.27,3.36-4.4.57-8.75,2.79-12.11,8.49V185.86c7.16-5.29,11.25-19.78,1.16-43.6,26,61.26,70.72,18,9.46-9.17,61.26,27.18,61.26-40.81,0-14.44,61.26-26.37,16.57-70.63-9.46-9.37,26-61.26-42-61.26-14.44,0C41.62,48-1.2,92.27,60.05,118.64c-61.26-26.37-61.26,41.62,0,14.44-61.26,27.18-18.44,70.44,9.09,9.17-11.42,25.4-6.38,40.24,1.52,44.55v13.43a16.87,16.87,0,0,0-5-1.49c-6.79-.89-16.73,4.31-28.27-3.36,1,28.07,24.3,37.07,33.25,33.59v20.47h-53A11.79,11.79,0,0,0,5.87,261.23V331.9a11.77,11.77,0,0,0,11.79,11.79H323.92a11.77,11.77,0,0,0,11.79-11.79V261.23a11.79,11.79,0,0,0-11.79-11.79H300.37V185.86c7.16-5.29,11.24-19.78,1.12-43.6,26.06,61.26,70.75,18,9.49-9.17,61.26,27.18,61.26-40.81,0-14.44Zm-242.78,7a8.27,8.27,0,1,1,8.28,8.25,8.26,8.26,0,0,1-8.28-8.25Zm136.9,47.1a4.95,4.95,0,1,1-4.95-4.95,4.95,4.95,0,0,1,4.95,4.95Zm-40.18,8.89c5.23,1.58,13.22,1.09,24-3.68-41.52,18.44-13.49,47.54,5.47,7.94v.29c-5.93,14.24-4.09,23.35,0,27.32v36H164.92Zm141.35,79.63a11.78,11.78,0,0,1,0,23.56H35.32a11.78,11.78,0,1,1,0-23.56H70.67v17.66H82.43V261.23h70.69v17.66h11.79V261.23h29.45v17.66h11.76V261.23h82.45v17.66h11.79V261.23ZM294.39,133.86a8.26,8.26,0,1,1,8.25-8.25,8.26,8.26,0,0,1-8.25,8.25Zm0,0"/></svg>