<svg id="Layer_1" data-name="Layer 1" xmlns="http://www.w3.org/2000/svg" viewBox="0 0 362.8 347.5"><defs><style>.cls-1{fill:#4d4d4d;}</style></defs><title>fa_icon10</title><path class="cls-1" d="M163.72,233.52H55.64L.76,317.29H154.38Zm0,0"/><path class="cls-1" d="M232,169.47h-39.1L197.79,213H251.5a5.86,5.86,0,0,1-5.73-6v-.2c0-1.09.17-22.76-13.76-37.37Zm0,0"/><path class="cls-1" d="M132.94,169.47H97.6L69.08,213h97l4.85-43.53H146a72.72,72.72,0,0,0-.86,8.25V178a5.83,5.83,0,0,1-5.85,5.67h-.15a5.87,5.87,0,0,1-5.73-6v-.23a72.59,72.59,0,0,0-.45-8Zm0,0"/><path class="cls-1" d="M268.41,174.37a61,61,0,0,0-3.46,5.53,66.48,66.48,0,0,0-7.42,27.23c0,.08,0,.14,0,.2h0a5.9,5.9,0,0,1-5.88,5.67h42.08Zm0,0"/><path class="cls-1" d="M200.09,233.52l9.37,83.77H362l-54.88-83.77Zm0,0"/><path class="cls-1" d="M212.87,104c-72.62,0-73.6-73.8-73.6-73.8,0,71.77-73.8,73.8-73.8,73.8,60.39.09,71.42,46.2,73.37,65.46a72.31,72.31,0,0,1,.43,8.11,75.77,75.77,0,0,1,.77-8.11c2.75-19.26,15.39-65.37,73-65.46Zm0,0"/><path class="cls-1" d="M308.93,149.7c-56.54,0-57.29-57.44-57.29-57.44,0,55.86-57.43,57.44-57.43,57.44,23.42,0,37.29,9,45.51,19.77,12,15.79,12,35.54,11.92,37.48.06-1.94,1-21.7,13.21-37.48,8.34-10.81,21.89-19.75,44.22-19.77Zm0,0"/></svg>