<?xml version="1.0" encoding="utf-8"?>
<!-- Generator: Adobe Illustrator 21.0.2, SVG Export Plug-In . SVG Version: 6.00 Build 0)  -->
<svg version="1.1" id="Layer_1" xmlns="http://www.w3.org/2000/svg" xmlns:xlink="http://www.w3.org/1999/xlink" x="0px" y="0px"
	 viewBox="0 0 362.8 347.5" style="enable-background:new 0 0 362.8 347.5;" xml:space="preserve">
<style type="text/css">
	.st0{fill:#4D4E4E;}
</style>
<g>
	<g>
		<g>
			<g>
				<path class="st0" d="M344.4,253.3c-9.1,0-16.4,23.5-16.4,32.6c0,9.1,7.3,16.4,16.4,16.4c9,0,16.4-7.3,16.4-16.4
					C360.7,276.7,353.4,253.3,344.4,253.3L344.4,253.3z M344.4,253.3"/>
			</g>
		</g>
		<g>
			<g>
				<path class="st0" d="M304.4,294.1c-9.1,0-16.4,23.5-16.4,32.6c0,9.1,7.3,16.4,16.4,16.4c9.1,0,16.4-7.3,16.4-16.4
					C320.8,317.6,313.5,294.1,304.4,294.1L304.4,294.1z M304.4,294.1"/>
			</g>
		</g>
		<g>
			<g>
				<path class="st0" d="M292.8,205.8c7.8,15.4,23.1,26,40.5,27.5c2.9,0.3,5.7-0.8,7.7-2.9c2-2.1,2.9-5,2.4-7.8l-11.6-79.2
					c-0.4-2.8-2.1-5.4-4.6-6.8c-2.5-1.4-5.5-1.7-8.2-0.6c-16.2,6.5-27.9,21-30.9,37.9L198,187.1l44.4-56.3c6.5-8.2,5.5-20-2.2-27
					l-74.9-68.4c-7.7-7-19.5-6.9-27.1,0.3l-1.7,1.5c-1.9-2.2-3.9-4.3-6-6.2c-14.2-12.9-32.6-20-51.7-20c-21.6,0-42.2,9.1-56.7,25
					c-28,30.8-26.3,78.2,3.5,106.9c-3.5,3.7-5.6,8.7-5.5,13.9c0,5.5,2.4,10.8,6.5,14.5l91.2,83.2c4.1,3.8,9.5,5.6,15,5.2
					c5.5-0.5,10.6-3.2,14-7.5l22.2-28.1L292.8,205.8z M40,52.3C49.9,41.4,64,35.2,78.8,35.2c13.1,0,25.7,4.9,35.4,13.7
					c1.7,1.6,3.3,3.3,4.8,5.1L43,126.2C22,106.6,20.6,73.6,40,52.3L40,52.3z M40,52.3"/>
			</g>
		</g>
	</g>
</g>
</svg>
