<svg id="Layer_1" data-name="Layer 1" xmlns="http://www.w3.org/2000/svg" viewBox="0 0 362.8 347.5"><defs><style>.cls-1{fill:#4d4d4d;}</style></defs><title>fa_icon6</title><path class="cls-1" d="M326.14,330c-20.27-24-56.63-42.3-100.52-49.77-4.28-25.72-12-37.73-12.16-38.06a18.43,18.43,0,0,1,12-1.09,17.93,17.93,0,0,1,11.79,8,1.4,1.4,0,0,0,2.57-.54,14,14,0,0,0-.44-6.17c-1.6-5.66-6-10.35-11.71-11.58a15.44,15.44,0,0,0-10.56,1.5,30.71,30.71,0,0,1,10.92-6c9.5-3,17.77-1.56,24.23,2.54a1.4,1.4,0,0,0,2.11-1.55,22.89,22.89,0,0,0-7.19-11.14c-6.64-5.88-15.93-8.41-24.34-5.62a24.38,24.38,0,0,0-7.33,3.92,4.13,4.13,0,0,1,.51-.62c6.2-7.29,13.63-10.45,21-10.62a1.79,1.79,0,0,0,1.1-3.12,22.9,22.9,0,0,0-10-4.79c-9.39-2-19.26.84-25.2,8.35a24.76,24.76,0,0,0-4.5,8.81,24.76,24.76,0,0,0-8.81-4.57c-9.21-2.62-18.86.86-25.29,7.94a22.16,22.16,0,0,0-5.26,9.44,1.89,1.89,0,0,0,2.87,2c6-4,13.82-5.78,23-3.48l.76.21a24.69,24.69,0,0,0-8.24,1.09C169,227.81,163,235.29,161,243.93a22.29,22.29,0,0,0,.55,12.87,1.53,1.53,0,0,0,2.86.07c2.91-7,8.71-12.88,18.06-15.89a30.91,30.91,0,0,1,12.37-1.49,15.6,15.6,0,0,0-9.46,5c-3.92,4.32-4.75,10.67-2.76,16.21a14.12,14.12,0,0,0,3.27,5.3,1.4,1.4,0,0,0,2.39-1.06c-.33-4.42,1.06-9,4.9-13.34,2.93-3.31,6.31-5.44,9.69-5.92,0,0,5.41,13.24,6.17,32.36a274.46,274.46,0,0,0-27.65-1.42,256.12,256.12,0,0,0-64.86,8.09c4.1-89.71,59.31-149.12,59.38-149.42,6.79,4.5,12.56,11.36,16.25,21,4.87,12.56,4,23.9-.36,33.3a3.29,3.29,0,0,0,4.39,4.28A33.4,33.4,0,0,0,207.69,185c8.85-10.41,12.3-25,7.25-37.69a36.21,36.21,0,0,0-16.58-18.64,72.37,72.37,0,0,1,25.76,13.46c18,14.29,25.83,32,26.44,49.52a3.56,3.56,0,0,0,6.28,2.25,52.77,52.77,0,0,0,11.83-27.71c2.75-20.5-4.32-41.76-20.61-54.49A57.72,57.72,0,0,0,231,102.48c.61.07,1.2.11,1.81.19,22,2.57,37.58,12.73,47.45,26.55a4.4,4.4,0,0,0,7.9-2.1,52.13,52.13,0,0,0-3.73-24.93C276.18,81.45,258,65.92,235.7,64a57.51,57.51,0,0,0-23,2.72,57.4,57.4,0,0,0-2.54-22.93C203.34,22.53,184.12,8.28,162,4.93a52.34,52.34,0,0,0-25.71,2.18,4.18,4.18,0,0,0-.22,7.76c15.89,6.42,29.57,19.4,37.11,40.44.22.59.44,1.12.62,1.71A57.5,57.5,0,0,0,161,42.48c-16.1-13-38.38-15.09-57.75-7.76C91.72,39,83.92,45.6,78.41,53.19a3.21,3.21,0,0,0,3.27,5.07c17.49-3.62,36.78-.1,55,14.4a72.69,72.69,0,0,1,19,22.06,36.13,36.13,0,0,0-21.92-11.93c-13.53-2-26.95,4.61-35.08,15.6a33.66,33.66,0,0,0-6.05,13.13,3.33,3.33,0,0,0,5.22,3.33c8.16-6.34,19-9.69,32.33-7.84,10.87,1.56,19.26,6,25.28,12.19-1.09.95-67.69,50.6-111.29,202.78a93.3,93.3,0,0,0-7.44,7.84A8.17,8.17,0,0,0,43,343.25H319.82c6.83,0,10.71-8,6.32-13.21Zm0,0"/></svg>