<svg id="Layer_1" data-name="Layer 1" xmlns="http://www.w3.org/2000/svg" viewBox="0 0 362.8 347.5"><defs><style>.cls-1{fill:#4d4d4d;}</style></defs><title>fa_icon7</title><path class="cls-1" d="M310.16,10.93a6.09,6.09,0,0,0-7.64-2c-34.08,16.25-84,49.7-121.6,115.23,21.81,33.09,40.7,75.75,50.6,130,1.3-54.22,12.05-171.13,77.9-235.36a6.08,6.08,0,0,0,.74-7.85Zm0,0"/><path class="cls-1" d="M85.35,57.82a6.29,6.29,0,0,0-3.36-1,6.08,6.08,0,0,0-4.81,9.84c66.34,85,48,231.68,42.62,265.45a6.21,6.21,0,0,0,1.41,4.94,6.14,6.14,0,0,0,4.62,2.13h85.42a6.07,6.07,0,0,0,4.35-1.82,6.18,6.18,0,0,0,1.78-4.38c-2-165.16-83.11-243.1-132-275.18Zm0,0"/><path class="cls-1" d="M33.61,205.94a2.89,2.89,0,0,0-3.86,4.2C61.21,250.45,52.49,320,50,336a2.76,2.76,0,0,0,.66,2.28,2.92,2.92,0,0,0,2.21,1H93.33a2.89,2.89,0,0,0,2.07-.81,2.92,2.92,0,0,0,.83-2c-.94-78.31-39.4-115.22-62.62-130.42Zm0,0"/><path class="cls-1" d="M332.61,156a4,4,0,0,0-5.16-.63c-32,20.94-85,71.94-86.33,179.91a3.88,3.88,0,0,0,4,3.93H301a3.91,3.91,0,0,0,4-4.52c-3.51-22.1-15.52-118,27.88-173.55a4,4,0,0,0-.21-5.15Zm0,0"/></svg>