<?xml version="1.0" encoding="utf-8"?>
<!-- Generator: Adobe Illustrator 21.0.2, SVG Export Plug-In . SVG Version: 6.00 Build 0)  -->
<svg version="1.1" id="Layer_1" xmlns="http://www.w3.org/2000/svg" xmlns:xlink="http://www.w3.org/1999/xlink" x="0px" y="0px"
	 viewBox="0 0 362.8 347.5" style="enable-background:new 0 0 362.8 347.5;" xml:space="preserve">
<style type="text/css">
	.st0{fill:#4D4E4E;}
</style>
<path class="st0" d="M147,44.9C41,60.8,26.4,212.4,100.5,272.6c-6.3,3-12.6,6-19,8.9c-8.5,3.8-10.5,16-6.1,23.4
	c5.1,8.7,14.9,9.9,23.4,6.1c15.6-7,30.9-14.6,46.1-22.2c3.9-2,6.3-4.7,7.6-7.7c3.5-4.2,4.7-10,3.7-15.8c-2.2-13.8-3.7-27.6-4.5-41.6
	c-1.3-21.9-35.5-22-34.2,0c0.4,6.3,0.9,12.6,1.6,18.9c-49.8-47.3-40.7-153,37.1-164.7C177.8,74.6,168.6,41.7,147,44.9L147,44.9z
	 M147,44.9"/>
<path class="st0" d="M262.4,74.8c6.3-3,12.6-6,19-8.9c8.5-3.8,10.5-16,6.1-23.4c-5.1-8.7-14.9-9.9-23.4-6.1
	c-15.6,7-30.9,14.6-46.1,22.2c-3.9,2-6.3,4.7-7.6,7.7c-3.5,4.2-4.7,10-3.7,15.8c2.3,13.8,3.7,27.6,4.5,41.6c1.3,21.9,35.5,22,34.2,0
	c-0.4-6.3-0.9-12.6-1.6-18.9c49.8,47.3,40.7,153-37.1,164.7c-21.7,3.3-12.5,36.2,9.1,32.9C321.8,286.7,336.4,135,262.4,74.8
	L262.4,74.8z M262.4,74.8"/>
</svg>
