<svg id="Layer_1" data-name="Layer 1" xmlns="http://www.w3.org/2000/svg" viewBox="0 0 362.8 347.5"><defs><style>.cls-1{fill:#4d4d4d;}</style></defs><title>fa_icon12</title><path class="cls-1" d="M122.56,107.85A9.71,9.71,0,1,0,115.7,105a9.8,9.8,0,0,0,6.86,2.84Zm0,0"/><path class="cls-1" d="M226.51,145a9.7,9.7,0,1,0,6.86,2.84,9.82,9.82,0,0,0-6.86-2.84Zm0,0"/><path class="cls-1" d="M264.2,91.27a9.7,9.7,0,1,0,6.86-2.85,9.77,9.77,0,0,0-6.86,2.85Zm0,0"/><path class="cls-1" d="M322,205.88a9.71,9.71,0,0,0-8.11-4.36H50a9.71,9.71,0,0,0-8.93,13.53,127.43,127.43,0,0,0,14.46,25.3H308.37a127.15,127.15,0,0,0,14.46-25.3,9.72,9.72,0,0,0-.81-9.17Zm0,0"/><path class="cls-1" d="M182,296.33c45.88,0,84.31-13.75,111.17-38.83H70.8c26.86,25.08,65.29,38.83,111.17,38.83Zm0,0"/><path class="cls-1" d="M182,312.32a215.56,215.56,0,0,1-49.54-5.5,55,55,0,0,0-5.86,24.75A11.42,11.42,0,0,0,138,343h88a11.42,11.42,0,0,0,11.42-11.43,55,55,0,0,0-5.86-24.75,215.57,215.57,0,0,1-49.54,5.5Zm0,0"/><path class="cls-1" d="M125.42,76.71a11.43,11.43,0,0,0,11.43-11.43,18.1,18.1,0,1,1,36.2,0v58.42A31.52,31.52,0,0,0,132.83,154a11.42,11.42,0,1,0,22.85,0A8.69,8.69,0,1,1,173,154v31.5H195.9V117a9.1,9.1,0,1,1,18.21,0,11.42,11.42,0,0,0,22.85,0A31.93,31.93,0,0,0,195.9,86.36V55.44a27.94,27.94,0,1,1,55.88,0,11.42,11.42,0,1,0,22.85,0A50.77,50.77,0,0,0,178.79,32,40.91,40.91,0,0,0,114,65.28a11.42,11.42,0,0,0,11.42,11.43Zm0,0"/></svg>